<svg width="561" height="287" viewBox="0 0 561 287" fill="none" xmlns="http://www.w3.org/2000/svg">
<g clip-path="url(#clip0_13_147)">
<path d="M463.11 50.4242C463.11 51.9965 462.838 53.5386 462.294 55.0504C461.75 56.5623 461.024 57.802 460.117 58.7695L415.941 117.005H461.75V134.24H389.908V124.897C389.908 123.869 390.149 122.659 390.633 121.268C391.117 119.817 391.843 118.456 392.81 117.186L437.439 58.316H392.538V41.1719H463.11V50.4242Z" fill="white"/>
<path d="M373.416 41.1718V134.24H350.92V41.1718H373.416ZM376.5 14.0496C376.5 15.9848 376.107 17.799 375.32 19.4922C374.534 21.1854 373.476 22.667 372.146 23.937C370.876 25.2069 369.364 26.2349 367.61 27.0211C365.856 27.7468 363.982 28.1096 361.986 28.1096C360.051 28.1096 358.207 27.7468 356.453 27.0211C354.76 26.2349 353.278 25.2069 352.008 23.937C350.738 22.667 349.71 21.1854 348.924 19.4922C348.198 17.799 347.835 15.9848 347.835 14.0496C347.835 12.054 348.198 10.1794 348.924 8.42564C349.71 6.67192 350.738 5.1601 352.008 3.89017C353.278 2.62023 354.76 1.62243 356.453 0.896752C358.207 0.110602 360.051 -0.282471 361.986 -0.282471C363.982 -0.282471 365.856 0.110602 367.61 0.896752C369.364 1.62243 370.876 2.62023 372.146 3.89017C373.476 5.1601 374.534 6.67192 375.32 8.42564C376.107 10.1794 376.5 12.054 376.5 14.0496Z" fill="white"/>
<path d="M327.979 41.1719V134.24H314.281C311.318 134.24 309.444 132.879 308.657 130.158L307.115 122.72C303.306 126.59 299.103 129.735 294.507 132.154C289.911 134.512 284.498 135.691 278.27 135.691C273.19 135.691 268.685 134.845 264.754 133.151C260.884 131.398 257.618 128.948 254.957 125.804C252.297 122.659 250.271 118.94 248.88 114.647C247.549 110.293 246.884 105.515 246.884 100.314V41.1719H269.289V100.314C269.289 105.999 270.59 110.413 273.19 113.558C275.851 116.642 279.812 118.184 285.073 118.184C288.943 118.184 292.572 117.338 295.958 115.644C299.345 113.891 302.55 111.502 305.573 108.478V41.1719H327.979Z" fill="white"/>
<path d="M526.237 208.244C529.14 202.68 532.587 198.326 536.578 195.182C540.569 191.977 545.286 190.374 550.729 190.374C555.022 190.374 558.469 191.311 561.07 193.186L559.618 209.967C559.316 211.056 558.862 211.842 558.258 212.326C557.713 212.749 556.957 212.961 555.99 212.961C555.083 212.961 553.722 212.81 551.908 212.507C550.154 212.205 548.431 212.054 546.737 212.054C544.258 212.054 542.051 212.416 540.116 213.142C538.181 213.868 536.427 214.926 534.855 216.317C533.343 217.647 531.982 219.28 530.773 221.215C529.624 223.15 528.535 225.358 527.507 227.837V285.165H505.102V192.098H518.255C520.553 192.098 522.155 192.521 523.062 193.367C523.969 194.154 524.574 195.605 524.876 197.721L526.237 208.244Z" fill="white"/>
<path d="M468.15 227.928C468.15 225.025 467.727 222.304 466.881 219.764C466.094 217.163 464.885 214.896 463.252 212.961C461.619 211.025 459.533 209.514 456.993 208.425C454.514 207.276 451.611 206.702 448.285 206.702C441.814 206.702 436.705 208.546 432.955 212.235C429.266 215.924 426.908 221.155 425.88 227.928H468.15ZM425.426 241.443C425.789 246.221 426.636 250.363 427.966 253.871C429.297 257.317 431.05 260.19 433.227 262.488C435.404 264.725 437.974 266.419 440.938 267.568C443.961 268.656 447.287 269.2 450.916 269.2C454.544 269.2 457.658 268.777 460.259 267.931C462.92 267.084 465.218 266.147 467.153 265.119C469.148 264.09 470.872 263.153 472.323 262.307C473.835 261.46 475.286 261.037 476.677 261.037C478.552 261.037 479.943 261.732 480.85 263.123L487.29 271.287C484.811 274.189 482.029 276.639 478.945 278.634C475.861 280.569 472.625 282.142 469.239 283.351C465.913 284.5 462.496 285.316 458.989 285.8C455.542 286.284 452.186 286.526 448.92 286.526C442.449 286.526 436.432 285.468 430.869 283.351C425.305 281.174 420.468 277.999 416.355 273.827C412.243 269.594 409.008 264.393 406.649 258.225C404.291 251.996 403.112 244.8 403.112 236.636C403.112 230.286 404.14 224.329 406.196 218.766C408.252 213.142 411.185 208.274 414.995 204.162C418.865 199.989 423.552 196.693 429.055 194.274C434.618 191.855 440.877 190.646 447.832 190.646C453.697 190.646 459.11 191.583 464.069 193.458C469.027 195.333 473.291 198.084 476.859 201.713C480.427 205.28 483.208 209.695 485.204 214.956C487.26 220.157 488.288 226.113 488.288 232.826C488.288 236.212 487.925 238.51 487.199 239.72C486.474 240.869 485.083 241.443 483.027 241.443H425.426Z" fill="white"/>
<path d="M369.799 208.879V259.313C369.799 262.216 370.524 264.484 371.976 266.116C373.427 267.749 375.362 268.566 377.781 268.566C379.172 268.566 380.321 268.414 381.228 268.112C382.196 267.749 383.012 267.386 383.677 267.023C384.403 266.661 385.038 266.328 385.582 266.026C386.126 265.663 386.671 265.481 387.215 265.481C387.88 265.481 388.424 265.663 388.848 266.026C389.271 266.328 389.725 266.812 390.208 267.477L396.921 278.362C393.655 281.083 389.906 283.14 385.673 284.53C381.5 285.921 377.146 286.617 372.611 286.617C364.507 286.617 358.279 284.349 353.924 279.814C349.57 275.218 347.393 268.898 347.393 260.855V208.879H309.568V285.165H287.162V208.969L279.089 207.699C277.335 207.337 275.914 206.732 274.826 205.885C273.798 204.978 273.284 203.708 273.284 202.075V192.914H287.162V186.02C287.162 180.698 287.948 175.921 289.521 171.688C291.154 167.455 293.451 163.857 296.415 160.893C299.438 157.93 303.097 155.662 307.391 154.09C311.684 152.518 316.522 151.732 321.904 151.732C326.198 151.732 330.189 152.306 333.878 153.455L333.424 164.703C333.364 165.55 333.122 166.245 332.698 166.789C332.275 167.273 331.701 167.666 330.975 167.969C330.31 168.211 329.524 168.392 328.617 168.513C327.709 168.573 326.742 168.604 325.714 168.604C323.053 168.604 320.664 168.906 318.548 169.511C316.492 170.055 314.738 171.053 313.287 172.504C311.835 173.895 310.717 175.77 309.93 178.128C309.205 180.426 308.842 183.299 308.842 186.746V192.914H348.391L353.199 167.424C353.501 166.215 354.076 165.278 354.922 164.612C355.769 163.947 356.857 163.615 358.188 163.615H369.799V192.914H394.653V208.879H369.799Z" fill="white"/>
<path d="M239.264 245.435C232.793 245.737 227.35 246.312 222.936 247.158C218.521 247.944 214.984 248.972 212.323 250.242C209.662 251.512 207.757 252.994 206.608 254.687C205.459 256.38 204.885 258.225 204.885 260.22C204.885 264.151 206.034 266.963 208.332 268.656C210.69 270.35 213.744 271.196 217.493 271.196C222.089 271.196 226.05 270.38 229.376 268.747C232.763 267.054 236.058 264.514 239.264 261.127V245.435ZM187.922 205.069C198.626 195.272 211.506 190.374 226.564 190.374C232.007 190.374 236.875 191.281 241.168 193.095C245.462 194.849 249.09 197.328 252.054 200.533C255.017 203.678 257.254 207.458 258.766 211.872C260.338 216.287 261.125 221.125 261.125 226.386V285.165H250.965C248.849 285.165 247.216 284.863 246.067 284.258C244.918 283.593 244.011 282.293 243.345 280.358L241.35 273.645C238.991 275.762 236.693 277.637 234.456 279.269C232.218 280.842 229.89 282.172 227.471 283.261C225.052 284.349 222.452 285.165 219.67 285.71C216.949 286.314 213.925 286.617 210.599 286.617C206.669 286.617 203.04 286.103 199.714 285.075C196.388 283.986 193.516 282.384 191.097 280.267C188.678 278.151 186.803 275.52 185.473 272.375C184.142 269.231 183.477 265.572 183.477 261.4C183.477 259.041 183.87 256.713 184.656 254.415C185.443 252.056 186.712 249.819 188.466 247.702C190.28 245.586 192.609 243.59 195.451 241.716C198.293 239.841 201.77 238.208 205.882 236.817C210.055 235.426 214.893 234.308 220.396 233.461C225.899 232.554 232.188 232.01 239.264 231.828V226.386C239.264 220.157 237.933 215.561 235.272 212.598C232.612 209.574 228.771 208.062 223.752 208.062C220.124 208.062 217.1 208.486 214.681 209.332C212.323 210.179 210.236 211.147 208.422 212.235C206.608 213.263 204.945 214.2 203.433 215.047C201.982 215.894 200.349 216.317 198.535 216.317C196.963 216.317 195.632 215.924 194.544 215.138C193.455 214.291 192.578 213.324 191.913 212.235L187.922 205.069Z" fill="white"/>
<path d="M144.797 208.244C147.699 202.68 151.146 198.326 155.137 195.182C159.129 191.977 163.846 190.374 169.288 190.374C173.582 190.374 177.029 191.311 179.629 193.186L178.178 209.967C177.875 211.056 177.422 211.842 176.817 212.326C176.273 212.749 175.517 212.961 174.549 212.961C173.642 212.961 172.282 212.81 170.467 212.507C168.714 212.205 166.99 212.054 165.297 212.054C162.818 212.054 160.61 212.416 158.675 213.142C156.74 213.868 154.986 214.926 153.414 216.317C151.902 217.647 150.542 219.28 149.332 221.215C148.183 223.15 147.095 225.358 146.067 227.837V285.165H123.661V192.098H136.814C139.112 192.098 140.715 192.521 141.622 193.367C142.529 194.154 143.134 195.605 143.436 197.721L144.797 208.244Z" fill="white"/>
<path d="M97.6858 254.233C99.0162 254.233 100.195 254.747 101.223 255.775L110.839 266.207C105.517 272.798 98.9557 277.848 91.1547 281.355C83.4142 284.863 74.1013 286.616 63.2162 286.616C53.48 286.616 44.7114 284.953 36.9104 281.627C29.1699 278.301 22.5481 273.675 17.045 267.749C11.542 261.823 7.30887 254.747 4.34569 246.523C1.44299 238.299 -0.00836182 229.318 -0.00836182 219.582C-0.00836182 209.725 1.56394 200.715 4.70853 192.551C7.85313 184.326 12.2677 177.251 17.9521 171.325C23.6971 165.398 30.5305 160.802 38.4525 157.537C46.3744 154.211 55.143 152.548 64.7582 152.548C74.313 152.548 82.7792 154.12 90.1569 157.265C97.5951 160.409 103.915 164.522 109.115 169.601L100.951 180.94C100.468 181.666 99.8326 182.301 99.0464 182.845C98.3207 183.389 97.2927 183.661 95.9623 183.661C95.0552 183.661 94.1179 183.419 93.1503 182.936C92.1827 182.391 91.1245 181.756 89.9755 181.031C88.8265 180.244 87.4961 179.398 85.9843 178.491C84.4724 177.584 82.7187 176.767 80.7231 176.042C78.7275 175.255 76.3993 174.62 73.7385 174.137C71.1381 173.592 68.1145 173.32 64.6675 173.32C58.8016 173.32 53.4195 174.379 48.5212 176.495C43.6834 178.551 39.5107 181.575 36.0033 185.566C32.4959 189.497 29.7746 194.335 27.8395 200.08C25.9043 205.764 24.9368 212.265 24.9368 219.582C24.9368 226.96 25.9648 233.521 28.0209 239.266C30.1374 245.011 32.9797 249.849 36.5476 253.78C40.1155 257.71 44.3184 260.734 49.1562 262.851C53.994 264.907 59.1947 265.935 64.7582 265.935C68.0842 265.935 71.0777 265.753 73.7385 265.39C76.4598 265.028 78.9391 264.453 81.1766 263.667C83.4746 262.881 85.6214 261.883 87.617 260.674C89.6731 259.404 91.699 257.862 93.6946 256.047C94.2993 255.503 94.9343 255.08 95.5995 254.777C96.2647 254.415 96.9601 254.233 97.6858 254.233Z" fill="white"/>
<path d="M164.831 1.62292C171.483 1.62292 177.743 2.40903 183.609 3.98132C189.475 5.49315 194.857 7.6694 199.755 10.5116C204.653 13.2934 209.037 16.7109 212.908 20.7626C216.838 24.7538 220.165 29.2286 222.886 34.1874C225.607 39.1461 227.663 44.5285 229.054 50.3339C230.505 56.1392 231.231 62.2471 231.231 68.6571C231.231 74.5229 230.627 80.1472 229.417 85.5292C228.208 90.8507 226.453 95.8396 224.156 100.496C221.918 105.152 219.167 109.446 215.902 113.377C212.636 117.247 208.917 120.664 204.744 123.627L238.034 159.911H226.741C223.838 159.911 214.811 159.91 210.005 158.731C205.046 157.123 199.742 150.646 197.807 148.529L184.425 133.151C181.341 133.998 178.166 134.633 174.901 135.057C171.696 135.48 168.339 135.691 164.831 135.691C154.914 135.691 145.873 134.028 137.709 130.702C129.546 127.316 122.531 122.629 116.665 116.642C110.86 110.656 106.355 103.58 103.15 95.4159C99.9447 87.1917 98.3421 78.2722 98.3421 68.6571C98.3421 59.0419 99.9446 50.152 103.15 41.9882C106.355 33.7639 110.86 26.6585 116.665 20.6718C122.531 14.685 129.546 10.028 137.709 6.70203C145.873 3.31559 154.914 1.62298 164.831 1.62292ZM169.327 27.6532C167.798 23.4549 161.88 23.4549 160.357 27.6532L153.205 47.3651C151.753 51.3502 148.623 54.4928 144.654 55.9442L125.02 63.1307C120.838 64.6667 120.838 70.6083 125.02 72.1376L144.654 79.3163C148.623 80.7742 151.753 83.9173 153.205 87.9022L160.357 107.614C161.88 111.812 167.804 111.812 169.327 107.614L176.479 87.9022C177.931 83.9171 181.061 80.7742 185.031 79.3163L204.664 72.1376C208.846 70.6083 208.846 64.6666 204.664 63.1307L185.031 55.9442C181.061 54.4927 177.931 51.35 176.479 47.3651L169.327 27.6532Z" fill="white"/>
</g>
<defs>
<clipPath id="clip0_13_147">
<rect width="561" height="287" fill="white"/>
</clipPath>
</defs>
</svg>
